<svg xmlns="http://www.w3.org/2000/svg" xmlns:xlink="http://www.w3.org/1999/xlink" width="1423" height="800" viewBox="0 0 1423 800">
  <defs>
    <linearGradient id="linear-gradient" y1="0.5" x2="1" y2="0.5" gradientUnits="objectBoundingBox">
      <stop offset="0" stop-color="#9adff7"/>
      <stop offset="0.854" stop-color="#0071bc"/>
    </linearGradient>
    <linearGradient id="linear-gradient-2" x1="0.717" y1="-0.566" x2="-0.333" y2="3.311" gradientUnits="objectBoundingBox">
      <stop offset="0" stop-color="#58b0de"/>
      <stop offset="0.133" stop-color="#50a0cf"/>
      <stop offset="0.39" stop-color="#3d79aa"/>
      <stop offset="0.742" stop-color="#1e396e"/>
      <stop offset="1" stop-color="#06073f"/>
    </linearGradient>
    <linearGradient id="linear-gradient-3" x1="0.225" y1="1.053" x2="0.88" y2="-0.342" xlink:href="#linear-gradient-2"/>
    <clipPath id="clip-efaturan__ogo">
      <rect width="1423" height="800"/>
    </clipPath>
  </defs>
  <g id="efaturan__ogo" data-name="efaturan _ogo" clip-path="url(#clip-efaturan__ogo)">
    <g id="Group_3" data-name="Group 3" transform="translate(-2804.723 -1043.15)">
      <g id="Group_1" data-name="Group 1" transform="translate(3180.411 1347.283)">
        <path id="Path_1" data-name="Path 1" d="M3028.434,1375.532h35.83V1406.5a.192.192,0,0,1-.191.191h-34.406a.192.192,0,0,0-.192.192v105.026a.188.188,0,0,1-.191.188h-40.312V1406.689h-21.546v-31.157h21.546V1369.3q0-23.883,14.151-37.908t39.854-14.02a74.384,74.384,0,0,1,17.266,1.949l14.4,3.448-11.116,30.639a.69.69,0,0,1-1.034.337,27.844,27.844,0,0,0-15.624-4.436q-18.438,0-18.436,20.249Z" transform="translate(-2967.425 -1317.376)" fill="#fff"/>
        <path id="Path_2" data-name="Path 2" d="M3114.616,1348.863q17.394,15.446,17.395,46.6v79.706h-37.9v-17.4q-11.429,19.474-42.577,19.473-16.106,0-27.911-5.453t-18.045-15.057a39.168,39.168,0,0,1-6.232-21.811q0-19.469,14.67-30.635t45.306-11.163h32.19q0-13.241-8.045-20.38t-24.146-7.14a70.531,70.531,0,0,0-21.939,3.5,58.319,58.319,0,0,0-18.132,9.34.179.179,0,0,1-.273-.06l-14.36-27.95a.2.2,0,0,1,.063-.251,88.046,88.046,0,0,1,27.25-12.365,122.8,122.8,0,0,1,32.845-4.413Q3097.217,1333.413,3114.616,1348.863Zm-34.529,96.321a26.314,26.314,0,0,0,11.424-14.152v-14.277h-27.782q-24.923,0-24.925,16.354a14.558,14.558,0,0,0,6.1,12.332q6.092,4.548,16.744,4.544A35.277,35.277,0,0,0,3080.087,1445.184Z" transform="translate(-2893.934 -1280.449)" fill="#fff"/>
        <path id="Path_3" data-name="Path 3" d="M3152.215,1488.365a.2.2,0,0,1-.069.238,41.674,41.674,0,0,1-14.545,6.53,74.253,74.253,0,0,1-18.3,2.206q-24.924,0-38.555-12.718t-13.63-37.39v-57.376h-21.55V1358.7h21.55v-34.011h40.312a.193.193,0,0,1,.192.192v33.63a.188.188,0,0,0,.188.188h34.41a.191.191,0,0,1,.191.191v30.774a.191.191,0,0,1-.191.191h-34.41a.19.19,0,0,0-.187.192v56.667q0,8.828,4.541,13.629t12.854,4.8a26.288,26.288,0,0,0,15.46-4.531.846.846,0,0,1,1.29.38Z" transform="translate(-2787.5 -1300.541)" fill="#fff"/>
        <path id="Path_4" data-name="Path 4" d="M3226.051,1334.234V1473.72h-38.423V1457.1A53.658,53.658,0,0,1,3168.413,1471a60.465,60.465,0,0,1-24.146,4.8q-27.519,0-43.614-15.836t-16.1-46.993v-78.734a.19.19,0,0,1,.189-.192h40.123a.189.189,0,0,1,.188.192V1407q0,33.751,28.3,33.753,14.54,0,23.366-9.479t8.828-28.168v-68.87a.192.192,0,0,1,.191-.192h40.121A.191.191,0,0,1,3226.051,1334.234Z" transform="translate(-2697.716 -1279)" fill="#fff"/>
        <path id="Path_5" data-name="Path 5" d="M3197.085,1338.6q12.327-5.187,28.426-5.192v36.877l-9.085-.009q-17.4,0-27.26,9.736t-9.868,29.208v65.755a.186.186,0,0,1-.189.188h-40.12a.188.188,0,0,1-.19-.188V1335.49h38.683v18.436A45.035,45.035,0,0,1,3197.085,1338.6Z" transform="translate(-2572.817 -1280.449)" fill="#fff"/>
        <path id="Path_6" data-name="Path 6" d="M3284.654,1348.863q17.389,15.446,17.4,46.6v79.706h-37.907v-17.4q-11.424,19.474-42.578,19.473-16.1,0-27.91-5.453t-18.042-15.057a39.168,39.168,0,0,1-6.232-21.811q0-19.469,14.667-30.635t45.306-11.163h32.193q0-13.241-8.048-20.38t-24.146-7.14a70.549,70.549,0,0,0-21.939,3.5,58.254,58.254,0,0,0-18.128,9.34.183.183,0,0,1-.277-.06l-14.356-27.95a.2.2,0,0,1,.059-.251,88.049,88.049,0,0,1,27.254-12.365,122.8,122.8,0,0,1,32.841-4.413Q3267.258,1333.413,3284.654,1348.863Zm-34.532,96.321a26.283,26.283,0,0,0,11.424-14.152v-14.277h-27.778q-24.927,0-24.925,16.354a14.556,14.556,0,0,0,6.1,12.332q6.1,4.548,16.747,4.544A35.268,35.268,0,0,0,3250.122,1445.184Z" transform="translate(-2502.401 -1280.449)" fill="#fff"/>
        <path id="Path_7" data-name="Path 7" d="M3347.46,1348.992q15.967,15.576,15.969,46.214v79.774a.189.189,0,0,1-.192.188h-40.12a.189.189,0,0,1-.191-.188v-73.546q0-16.611-7.27-24.793t-21.03-8.177q-15.318,0-24.4,9.476t-9.088,28.171v68.869a.186.186,0,0,1-.188.188h-40.121a.188.188,0,0,1-.19-.188V1335.49h38.683v16.358a53.8,53.8,0,0,1,19.991-13.634,69.682,69.682,0,0,1,26.224-4.8Q3331.489,1333.413,3347.46,1348.992Z" transform="translate(-2384.381 -1280.449)" fill="#fff"/>
      </g>
      <g id="Group_2" data-name="Group 2" transform="translate(2874.928 1304.388)">
        <path id="Path_8" data-name="Path 8" d="M2906.663,1348.741" transform="translate(-2801.854 -1202.259)" fill="#fff"/>
        <path id="Path_9" data-name="Path 9" d="M2906.663,1348.741" transform="translate(-2801.854 -1202.259)" fill="#fff"/>
        <path id="Path_10" data-name="Path 10" d="M3134.333,1528.28c-22.282,23.683-72.044,49.4-106.1,52.921a138.83,138.83,0,0,1-153.3-138.026A138.689,138.689,0,0,1,3008.106,1304.5c1.856-.079,3.732-.112,5.6-.112a138.221,138.221,0,0,1,42.724,6.714c.386.112.772.241,1.162.37a137.949,137.949,0,0,1,33.469,16.471c.109.066.215.135.327.214a139.434,139.434,0,0,1,35.539,34.73,86.827,86.827,0,0,0-24-21.1l-.011-.01c-.724-.429-1.453-.852-2.183-1.255a86.678,86.678,0,0,0-53.972-9.967q-2.462.337-4.875.826l-.026.01c-.258.049-.5.1-.756.155a85.3,85.3,0,0,0-20.457,7.067,86.615,86.615,0,0,0-41.907,45.111l-.006.02c-.226.541-.434,1.089-.638,1.631l-.01.02q-.476.887-.928,1.787l-.259.515c-.3.6-.594,1.215-.878,1.823-.3.61-.584,1.238-.858,1.859-.3.654-.585,1.308-.858,1.961-.172.393-.344.79-.5,1.192-.2.449-.379.9-.561,1.36-.284.714-.564,1.437-.832,2.167-.259.707-.516,1.4-.757,2.107-.277.766-.535,1.529-.782,2.305v.017a107.679,107.679,0,0,0-3.6,14.38,109.087,109.087,0,0,0-1.721,19.4q0,5.494.532,10.853.271,2.76.673,5.476a110.728,110.728,0,0,0,3.481,15.453,109.431,109.431,0,0,0,34.09,51.769c10.2,8.636,28.35,15.43,41.25,19.865a108.871,108.871,0,0,0,35.635,5.952c.222,0,.456,0,.687-.01a108.821,108.821,0,0,0,39.464-7.6C3128.031,1535.384,3128.388,1532.124,3134.333,1528.28Z" transform="translate(-2874.927 -1304.388)" fill="url(#linear-gradient)"/>
        <path id="Path_11" data-name="Path 11" d="M3044.488,1379.414c-.129.076-.248.162-.377.238-5.944,3.844-6.3,7.1-12.966,9.746a108.821,108.821,0,0,1-39.464,7.6c-.23.01-.465.01-.687.01a108.871,108.871,0,0,1-35.635-5.952c-12.9-4.435-31.052-11.229-41.25-19.865,4.4,1.169,8.253,3.217,13.8,3.914,11.6,1.46,23.23,2.517,32.21.581,3.634-.783,13.228-4.409,15.169-6.75" transform="translate(-2784.706 -1155.76)" fill="url(#linear-gradient-2)"/>
        <path id="Path_12" data-name="Path 12" d="M3039.309,1346.106c-.2-.291-.391-.587-.6-.875a86.827,86.827,0,0,0-24-21.1l-.011-.01c-.724-.429-1.453-.852-2.183-1.255a86.678,86.678,0,0,0-53.972-9.967q-2.462.337-4.875.826l-.026.01c-.258.049-.5.1-.756.155a85.3,85.3,0,0,0-20.457,7.067l-1.879.67c13.749-3.173,32.63,10.826,35.976,24.628a.872.872,0,0,1,.033.149,5.4,5.4,0,0,1,.129.574c.154.664.273,1.334.386,2.011a.254.254,0,0,0,.021.1,87.4,87.4,0,0,1,1.341,15.238,86.057,86.057,0,0,1-55.2,80.36,86.188,86.188,0,0,0,89.5,14.208c.036-.017.069-.026.105-.043.258-.112.516-.225.779-.343.456-.208.922-.413,1.377-.628.707-.327,1.4-.67,2.091-1.017.575-.281,1.143-.574,1.7-.885.258-.129.508-.258.76-.4.531-.28,1.057-.574,1.582-.875.151-.1.316-.182.472-.274q.788-.456,1.565-.921l.007-.01c.671-.4,1.334-.826,2-1.255.311-.2.62-.4.931-.6q2.115-1.408,4.146-2.933c.23-.172.455-.344.677-.515s.456-.354.689-.535c.7-.548,1.392-1.109,2.072-1.674l.036-.026c.541-.456,1.083-.912,1.6-1.377.219-.188.423-.37.631-.558.607-.542,1.212-1.094,1.8-1.662.591-.548,1.169-1.116,1.736-1.685l.093-.1c.3-.307.611-.618.905-.928.354-.354.7-.713,1.03-1.083.439-.472.879-.944,1.308-1.427.311-.354.617-.707.928-1.066.906-1.041,1.774-2.107,2.622-3.19.312-.4.611-.793.912-1.186s.6-.8.9-1.205c.311-.419.611-.842.912-1.272.272-.4.541-.782.818-1.186s.532-.8.8-1.206l.016-.026.01-.017a86.186,86.186,0,0,0,3-72.671C3042.26,1351.43,3040.714,1348.811,3039.309,1346.106Z" transform="translate(-2786.71 -1286.731)" fill="url(#linear-gradient-3)"/>
      </g>
    </g>
  </g>
</svg>
