<svg xmlns="http://www.w3.org/2000/svg" xmlns:xlink="http://www.w3.org/1999/xlink" width="2222" height="1249" viewBox="0 0 2222 1249">
  <defs>
    <linearGradient id="linear-gradient" y1="0.5" x2="1" y2="0.5" gradientUnits="objectBoundingBox">
      <stop offset="0" stop-color="#9adff7"/>
      <stop offset="0.854" stop-color="#0071bc"/>
    </linearGradient>
    <linearGradient id="linear-gradient-2" x1="0.717" y1="-0.566" x2="-0.333" y2="3.311" gradientUnits="objectBoundingBox">
      <stop offset="0" stop-color="#58b0de"/>
      <stop offset="0.133" stop-color="#50a0cf"/>
      <stop offset="0.39" stop-color="#3d79aa"/>
      <stop offset="0.742" stop-color="#1e396e"/>
      <stop offset="1" stop-color="#06073f"/>
    </linearGradient>
    <linearGradient id="linear-gradient-3" x1="0.225" y1="1.053" x2="0.88" y2="-0.342" xlink:href="#linear-gradient-2"/>
    <clipPath id="clip-efaturan__Logo_1">
      <rect width="2222" height="1249"/>
    </clipPath>
  </defs>
  <g id="efaturan__Logo_1" data-name="efaturan _Logo – 1" clip-path="url(#clip-efaturan__Logo_1)">
    <g id="Group_3" data-name="Group 3" transform="translate(-2740.928 -891.388)">
      <g id="Group_1" data-name="Group 1" transform="translate(3339.581 1369.632)">
        <path id="Path_1" data-name="Path 1" d="M3060.222,1405.834h54.5v47.1a.291.291,0,0,1-.291.291H3062.1a.292.292,0,0,0-.293.292v159.75a.286.286,0,0,1-.291.287H3000.2V1453.225h-32.772v-47.391H3000.2v-9.475q0-36.327,21.525-57.659t60.619-21.324a113.139,113.139,0,0,1,26.262,2.964l21.907,5.244-16.908,46.6a1.05,1.05,0,0,1-1.573.512,42.351,42.351,0,0,0-23.765-6.747q-28.045,0-28.042,30.8Z" transform="translate(-2967.425 -1317.376)" fill="#fff"/>
        <path id="Path_2" data-name="Path 2" d="M3174.68,1356.913q26.456,23.494,26.458,70.881v121.236h-57.654V1522.57q-17.383,29.621-64.762,29.619-24.5,0-42.454-8.294-17.978-8.288-27.447-22.9a59.576,59.576,0,0,1-9.48-33.175q0-29.613,22.313-46.6t68.912-16.979h48.963q0-20.141-12.237-31t-36.726-10.861a107.285,107.285,0,0,0-33.371,5.33,88.706,88.706,0,0,0-27.579,14.206.273.273,0,0,1-.416-.091l-21.843-42.513a.3.3,0,0,1,.1-.382q17.308-12.124,41.448-18.807a186.782,186.782,0,0,1,49.958-6.712Q3148.215,1333.413,3174.68,1356.913Zm-52.521,146.509a40.023,40.023,0,0,0,17.376-21.525v-21.717h-42.258q-37.909,0-37.912,24.876,0,11.845,9.284,18.758,9.267,6.917,25.468,6.912Q3109.911,1510.725,3122.159,1503.421Z" transform="translate(-2839.013 -1252.852)" fill="#fff"/>
        <path id="Path_3" data-name="Path 3" d="M3207.785,1573.648a.3.3,0,0,1-.105.362,63.388,63.388,0,0,1-22.123,9.932,112.951,112.951,0,0,1-27.839,3.355q-37.911,0-58.643-19.345t-20.732-56.871v-87.272h-32.778v-47.391h32.778v-51.732h61.315a.293.293,0,0,1,.293.292v51.153a.285.285,0,0,0,.285.287h52.339a.291.291,0,0,1,.292.291v46.808a.291.291,0,0,1-.292.291h-52.339a.29.29,0,0,0-.285.292v86.192q0,13.427,6.907,20.731,6.91,7.318,19.551,7.3,13.645,0,23.515-6.892a1.286,1.286,0,0,1,1.962.578Z" transform="translate(-2653.039 -1287.96)" fill="#fff"/>
        <path id="Path_4" data-name="Path 4" d="M3299.776,1334.334V1546.5h-58.443v-25.273a81.609,81.609,0,0,1-29.227,21.129,91.971,91.971,0,0,1-36.727,7.3q-41.856,0-66.339-24.088-24.5-24.082-24.485-71.479V1334.334a.289.289,0,0,1,.288-.292h61.029a.288.288,0,0,1,.287.292V1445.01q0,51.337,43.045,51.34,22.116,0,35.541-14.417t13.428-42.845V1334.334a.292.292,0,0,1,.292-.292h61.025A.291.291,0,0,1,3299.776,1334.334Z" transform="translate(-2496.156 -1250.321)" fill="#fff"/>
        <path id="Path_5" data-name="Path 5" d="M3227.456,1341.31q18.749-7.89,43.237-7.9V1389.5l-13.819-.014q-26.463,0-41.463,14.809-15.02,14.807-15.01,44.427v100.016a.283.283,0,0,1-.288.287h-61.024a.286.286,0,0,1-.29-.287v-212.17h58.838v28.041Q3208.692,1349.2,3227.456,1341.31Z" transform="translate(-2277.917 -1252.852)" fill="#fff"/>
        <path id="Path_6" data-name="Path 6" d="M3344.716,1356.913q26.45,23.494,26.459,70.881v121.236h-57.659V1522.57q-17.377,29.621-64.763,29.619-24.489,0-42.453-8.294t-27.442-22.9a59.572,59.572,0,0,1-9.48-33.175q0-29.613,22.309-46.6t68.912-16.979h48.968q0-20.141-12.241-31t-36.727-10.861a107.309,107.309,0,0,0-33.371,5.33,88.6,88.6,0,0,0-27.573,14.206.278.278,0,0,1-.422-.091l-21.837-42.513a.3.3,0,0,1,.089-.382q17.31-12.124,41.454-18.807a186.775,186.775,0,0,1,49.952-6.712Q3318.257,1333.413,3344.716,1356.913Zm-52.525,146.509a39.978,39.978,0,0,0,17.376-21.525v-21.717h-42.252q-37.916,0-37.912,24.876,0,11.845,9.279,18.758t25.473,6.912Q3279.942,1510.725,3292.191,1503.421Z" transform="translate(-2154.878 -1252.852)" fill="#fff"/>
        <path id="Path_7" data-name="Path 7" d="M3413.543,1357.109q24.286,23.691,24.289,70.293v121.34a.288.288,0,0,1-.292.287h-61.024a.287.287,0,0,1-.291-.287V1436.876q0-25.265-11.058-37.711t-31.988-12.438q-23.3,0-37.12,14.413t-13.823,42.85v104.753a.283.283,0,0,1-.287.287h-61.026a.285.285,0,0,1-.29-.287v-212.17h58.837v24.882a81.828,81.828,0,0,1,30.408-20.738,105.989,105.989,0,0,1,39.887-7.3Q3389.25,1333.413,3413.543,1357.109Z" transform="translate(-1948.66 -1252.852)" fill="#fff"/>
      </g>
      <g id="Group_2" data-name="Group 2" transform="translate(2874.928 1304.388)">
        <path id="Path_8" data-name="Path 8" d="M2906.663,1348.741" transform="translate(-2747.244 -1125.937)" fill="#fff"/>
        <path id="Path_9" data-name="Path 9" d="M2906.663,1348.741" transform="translate(-2747.244 -1125.937)" fill="#fff"/>
        <path id="Path_10" data-name="Path 10" d="M3269.493,1644.937c-33.892,36.022-109.582,75.135-161.388,80.495a212.39,212.39,0,0,1-22.083,1.15c-116.578,0-211.095-94.5-211.095-211.094a210.95,210.95,0,0,1,202.57-210.929c2.824-.12,5.677-.171,8.525-.171a210.239,210.239,0,0,1,64.984,10.213c.587.171,1.175.367,1.768.562a209.826,209.826,0,0,1,50.907,25.053c.167.1.327.206.5.326a212.085,212.085,0,0,1,54.057,52.826,132.07,132.07,0,0,0-36.5-32.094l-.017-.016c-1.1-.653-2.21-1.3-3.32-1.909a131.842,131.842,0,0,0-82.093-15.161q-3.745.512-7.415,1.256l-.04.015c-.392.075-.768.155-1.149.236a129.76,129.76,0,0,0-31.116,10.75,131.745,131.745,0,0,0-63.743,68.615l-.009.031c-.343.823-.66,1.657-.97,2.481l-.015.03q-.724,1.349-1.411,2.718l-.394.784c-.456.919-.9,1.848-1.335,2.773-.458.928-.888,1.883-1.306,2.828-.458.994-.89,1.989-1.306,2.983-.261.6-.523,1.2-.76,1.814-.3.682-.577,1.376-.853,2.069-.432,1.086-.858,2.186-1.265,3.3-.394,1.075-.785,2.131-1.151,3.205-.422,1.165-.814,2.326-1.19,3.506v.025a163.833,163.833,0,0,0-5.481,21.873,165.924,165.924,0,0,0-2.617,29.507q0,8.356.81,16.507.412,4.2,1.023,8.329a168.41,168.41,0,0,0,5.3,23.5,166.447,166.447,0,0,0,51.852,78.742c15.512,13.136,43.121,23.47,62.743,30.216a165.6,165.6,0,0,0,54.2,9.053c.337,0,.694,0,1.044-.016a165.514,165.514,0,0,0,60.026-11.559C3259.908,1655.743,3260.452,1650.784,3269.493,1644.937Z" transform="translate(-2874.927 -1304.388)" fill="url(#linear-gradient)"/>
        <path id="Path_11" data-name="Path 11" d="M3112.42,1384.874c-.2.115-.377.246-.573.362-9.042,5.847-9.585,10.805-19.722,14.824a165.513,165.513,0,0,1-60.026,11.559c-.351.016-.707.016-1.044.016a165.592,165.592,0,0,1-54.2-9.053c-19.622-6.746-47.231-17.08-62.743-30.216,6.7,1.779,12.553,4.893,20.993,5.953,17.642,2.221,35.334,3.828,48.993.884,5.527-1.19,20.12-6.706,23.072-10.267" transform="translate(-2717.281 -1044.687)" fill="url(#linear-gradient-2)"/>
        <path id="Path_12" data-name="Path 12" d="M3105,1363.847c-.308-.442-.594-.893-.906-1.331a132.075,132.075,0,0,0-36.5-32.094l-.017-.016c-1.1-.653-2.21-1.3-3.32-1.909a131.842,131.842,0,0,0-82.093-15.161q-3.745.513-7.415,1.256l-.04.015c-.392.075-.768.155-1.149.236a129.755,129.755,0,0,0-31.116,10.75l-2.858,1.02c20.913-4.827,49.631,16.467,54.72,37.46a1.337,1.337,0,0,1,.051.226,8.194,8.194,0,0,1,.2.873c.235,1.01.416,2.03.587,3.059a.381.381,0,0,0,.031.146,132.919,132.919,0,0,1,2.04,23.178,130.9,130.9,0,0,1-83.962,122.231,131.1,131.1,0,0,0,136.135,21.611c.055-.025.105-.04.16-.065.392-.171.785-.342,1.186-.522.694-.316,1.4-.628,2.094-.955,1.076-.5,2.136-1.02,3.18-1.547.875-.427,1.738-.873,2.588-1.346.392-.2.772-.392,1.155-.6.808-.426,1.607-.874,2.407-1.33.23-.146.481-.277.717-.417q1.2-.693,2.381-1.4l.011-.015c1.021-.613,2.029-1.256,3.035-1.909.472-.3.943-.6,1.416-.914q3.217-2.141,6.305-4.461c.351-.261.692-.523,1.03-.784.356-.261.693-.538,1.048-.814,1.071-.834,2.117-1.687,3.152-2.547l.055-.04c.823-.693,1.647-1.387,2.44-2.1.333-.286.643-.562.959-.848.924-.824,1.844-1.664,2.733-2.527.9-.834,1.778-1.7,2.641-2.562l.141-.145c.463-.467.93-.939,1.377-1.412.538-.538,1.061-1.085,1.567-1.648.668-.718,1.337-1.436,1.989-2.17.473-.538.939-1.075,1.411-1.622,1.378-1.583,2.7-3.206,3.988-4.853.474-.6.93-1.206,1.388-1.8.463-.617.919-1.215,1.362-1.833.473-.638.93-1.281,1.388-1.935.414-.6.823-1.19,1.245-1.8.4-.6.81-1.22,1.216-1.834l.024-.039.015-.025a131.092,131.092,0,0,0,4.562-110.536C3109.484,1371.945,3107.133,1367.962,3105,1363.847Z" transform="translate(-2720.782 -1273.536)" fill="url(#linear-gradient-3)"/>
      </g>
    </g>
  </g>
</svg>
